<?xml version="1.0"?>
<svg xmlns="http://www.w3.org/2000/svg" id="Capa_1" enable-background="new 0 0 512 512" height="512px" viewBox="0 0 512 512" width="512px" class=""><g><path d="m502 76.71c5.523 0 10-4.477 10-10s-4.477-10-10-10h-154.464v-36.71h154.464c5.523 0 10-4.477 10-10s-4.477-10-10-10h-492c-5.523 0-10 4.477-10 10s4.477 10 10 10h153.031v36.71h-153.031c-5.523 0-10 4.477-10 10s4.477 10 10 10h45.02v132.877c-15.851.203-28.687 13.575-28.687 29.991 0 6.397 1.955 12.328 5.273 17.203-6.438 5.507-10.531 13.68-10.531 22.797 0 7.678 2.902 14.688 7.663 20-4.761 5.312-7.663 12.322-7.663 20 0 9.115 4.091 17.287 10.528 22.794-3.315 4.875-5.27 10.807-5.27 17.206 0 16.424 12.838 29.801 28.687 29.991v45.717h-45.02c-5.523 0-10 4.477-10 10s4.477 10 10 10h492c5.523 0 10-4.477 10-10s-4.477-10-10-10h-46.4v-45.708h.05c16.005 0 29.027-13.458 29.027-30 0-6.398-1.954-12.331-5.27-17.206 6.437-5.507 10.528-13.679 10.528-22.794 0-7.678-2.902-14.688-7.663-20 4.761-5.312 7.663-12.322 7.663-20 0-9.116-4.093-17.29-10.531-22.797 3.317-4.875 5.273-10.806 5.273-17.203 0-16.542-13.033-30-29.052-30h-.025v-132.868zm-42.065 192.867c5.514 0 10 4.486 10 10s-4.486 10-10 10h-81.168c-5.44 0-9.997-4.559-9.997-9.998 0-5.514 4.486-10 10-10zm10 50.001c0 5.514-4.486 10-10 10h-81.168c-5.514 0-10-4.486-10-10s4.486-10 10-10h81.168c5.514-.001 10 4.485 10 10zm-109.269-89.886c-2.223 6.558-2.154 13.836.198 20.348.519 1.444 1.134 2.85 1.866 4.196-12.714 8.081-17.56 24.884-10.939 38.455.426.873.879 1.734 1.39 2.565-1.822 1.46-3.014 1.743-5.162 1.743-9.603 0-13.01-8.625-13.01-16.01v-40.32c0-6.115 4.975-11.09 11.09-11.09h14.599c-.011.038-.02.077-.032.113zm24.434-152.982v132.87h-39c-17.143 0-31.09 13.947-31.09 31.09v40.32c0 20.866 13.883 36.01 33.01 36.01.297 0 .577-.018.867-.025-.074.859-.12 1.725-.12 2.602 0 11.544 6.559 21.58 16.142 26.594-1.96 4.038-3.071 8.589-3.071 13.406 0 14.502 10.009 26.632 23.262 29.404v46.304h-93.85v-45.475c0-5.523-4.477-10-10-10s-10 4.477-10 10v45.476h-30.5v-237.93c4.736.753 9.589 1.148 14.534 1.148 5.444 0 10.779-.478 15.966-1.387v102.693c0 5.523 4.477 10 10 10s10-4.477 10-10v-108.606c33.05-14.046 56.286-46.836 56.286-84.951v-29.543zm-57.564-56.71v86.252c0 39.84-32.412 72.252-72.252 72.252s-72.252-32.412-72.252-72.252v-86.252zm-106.786 171.793v243.493h-95.22v-46.234c13.44-2.618 23.642-14.834 23.642-29.474 0-4.817-1.11-9.368-3.071-13.406 9.583-5.014 16.141-15.05 16.141-26.594 0-.877-.046-1.744-.12-2.602.29.007.57.025.868.025 19.127 0 33.01-15.144 33.01-36.01v-40.32c0-17.143-13.947-31.09-31.09-31.09h-39.38v-132.871h37.501v29.542c0 38.664 23.911 71.842 57.719 85.541zm-169.675 137.784c-5.514 0-10-4.486-10-10s4.486-10 10-10h81.168c5.514 0 10 4.486 10 10s-4.486 10-10 10zm-10-50c0-5.514 4.486-10 10-10l81.165.003c5.514 0 10 4.486 10 10 0 2.977-1.385 5.954-3.747 7.791-1.714 1.377-3.886 2.206-6.25 2.206h-81.168c-5.514 0-10-4.486-10-10zm109.236-49.997h14.6c6.115 0 11.09 4.975 11.09 11.09v40.32c0 7.385-3.407 16.01-13.01 16.01-2.148 0-3.34-.283-5.162-1.743.515-.836.97-1.702 1.398-2.581 3.746-7.694 3.98-16.827.669-24.712-2.201-5.241-5.945-9.84-10.626-13.064-.339-.234-.983-.618-.983-.618l.234-.495c3.535-7.68 4.581-15.982 1.817-24.115-.01-.031-.017-.062-.027-.092zm-44.781-152.87v132.867h-30.51v-132.867zm-50.145 152.867h67.477c.02 0 .038.003.058.003 4.99 0 9.05 4.486 9.05 10 0 5.008-3.75 9.997-9.049 9.997h-67.536c-4.991 0-9.051-4.486-9.051-10s4.06-10 9.051-10zm-9.052 130c0-5.514 4.049-10 9.027-10h64.785c4.978 0 9.027 4.486 9.027 10s-4.05 10-9.027 10h-64.785c-4.977 0-9.027-4.486-9.027-10zm28.687 30.003h30.51v45.706h-30.51zm330.08 45.706v-45.706h30.5v45.706zm50.55-65.709h-64.785c-4.978 0-9.027-4.486-9.027-10s4.05-10 9.027-10h64.785c4.977 0 9.026 4.487 9.026 10 .001 5.514-4.049 10-9.026 10zm9.027-129.999c0 5.514-4.061 10-9.052 10h-67.537c-5.309-.001-9.048-4.986-9.048-9.997 0-5.514 4.06-10 9.05-10 .016 0 .032-.002.048-.002h67.486c4.992-.002 9.053 4.484 9.053 9.999zm-29.077-30.001h-30.5v-132.867h30.5z" data-original="#000000" class="active-path" data-old_color="#000000" fill="#0DFF00"/><path d="m502 492h-492c-5.523 0-10 4.477-10 10s4.477 10 10 10h492c5.523 0 10-4.477 10-10s-4.477-10-10-10z" data-original="#000000" class="active-path" data-old_color="#000000" fill="#0DFF00"/><path d="m290.49 340.29c-2.095-5.029-8.028-7.48-13.06-5.4-5.039 2.082-7.489 8.015-5.41 13.05 2.081 5.038 8.025 7.495 13.06 5.41 5.046-2.09 7.476-8.019 5.41-13.06z" data-original="#000000" class="active-path" data-old_color="#000000" fill="#0DFF00"/><path d="m222.085 132.46c-1.101 3.063-.641 6.471 1.232 9.133 1.873 2.663 4.924 4.247 8.179 4.247h47.702c3.256 0 6.308-1.585 8.181-4.249s2.331-6.072 1.229-9.136l-9.873-27.446c-1.023-5.015.123-10.234 3.108-14.058 4.646-5.951 7.101-13.093 7.101-20.655 0-9.541-4.078-18.665-11.189-25.033-7.107-6.365-16.656-9.407-26.196-8.354-15.308 1.693-27.742 14.016-29.565 29.302-1.035 8.676 1.255 17.272 6.448 24.205 3.25 4.34 4.528 9.588 3.544 14.481zm19.768-63.88c.733-6.151 5.74-11.11 11.904-11.792 3.955-.437 7.738.761 10.656 3.375 2.88 2.579 4.532 6.273 4.532 10.134 0 3.059-.991 5.946-2.866 8.348-6.873 8.804-9.318 20.256-6.708 31.421.087.376.197.746.328 1.109l5.275 14.666h-19.26l5.313-14.791c.13-.361.239-.73.326-1.104 2.525-10.801.01-22.29-6.902-31.52-2.099-2.801-3.021-6.297-2.598-9.846z" data-original="#000000" class="active-path" data-old_color="#000000" fill="#0DFF00"/></g> </svg>
